<svg width="20" height="21" viewBox="0 0 20 21" fill="none" xmlns="http://www.w3.org/2000/svg">
<path d="M9.99999 0C15.523 0 20 4.61686 20 10.3125C20 16.0081 15.523 20.625 9.99999 20.625L7.3913 10.3125L9.99999 0Z" fill="#354A67"/>
<path d="M10 20.625C4.47696 20.625 0 16.0081 0 10.3125C0 4.61686 4.47696 0 10 0V20.625Z" fill="#466289"/>
<path d="M10 18.8316L9.13043 9.86426L18.2609 10.3126C18.2609 15.0102 14.5552 18.8316 10 18.8316Z" fill="#BEC8D6"/>
<path d="M10 1.79346C14.5552 1.79346 18.2609 5.61491 18.2609 10.3125H9.13043L10 1.79346Z" fill="#DAE0E7"/>
<path d="M10 10.3126V18.8317C5.44479 18.8317 1.73914 15.0102 1.73914 10.3126L5.86957 8.96753L10 10.3126Z" fill="#DAE0E7"/>
<path d="M10 1.79346V10.3125H1.73914C1.73914 5.61491 5.44479 1.79346 10 1.79346Z" fill="white"/>
<path d="M6.60918 5.60075L7.73871 4.92822L7.08656 3.7634L5.95703 4.43593L6.60918 5.60075Z" fill="#DAE0E7"/>
<path d="M4.779 7.98074L5.43115 6.81592L4.30163 6.14339L3.64947 7.30821L4.779 7.98074Z" fill="#DAE0E7"/>
<path d="M5.43102 13.8091L4.77887 12.6443L3.64934 13.3168L4.30149 14.4816L5.43102 13.8091Z" fill="#BEC8D6"/>
<path d="M7.7389 15.6967L6.60938 15.0242L5.95722 16.189L7.08675 16.8615L7.7389 15.6967Z" fill="#BEC8D6"/>
<path d="M13.3908 15.0242L12.2612 15.6968L12.9134 16.8616L14.0429 16.1891L13.3908 15.0242Z" fill="#A3B1C4"/>
<path d="M15.221 12.6443L14.5688 13.8091L15.6984 14.4816L16.3505 13.3168L15.221 12.6443Z" fill="#A3B1C4"/>
<path d="M14.4887 4.76416L10.0309 9.36134V11.2636L15.411 5.71533L14.4887 4.76416Z" fill="#354A67"/>
<path d="M7.87885 7.14209L6.95654 8.09322L10.0309 11.2637V9.36143L7.87885 7.14209Z" fill="#466289"/>
<path d="M10.6522 16.1414H10V17.4865H10.6522V16.1414Z" fill="#A3B1C4"/>
<path d="M10.6522 3.13867H10V4.48378H10.6522V3.13867Z" fill="#BEC8D6"/>
<path d="M10 16.1414H9.34784V17.4865H10V16.1414Z" fill="#BEC8D6"/>
<path d="M10 3.13867H9.34784V4.48378H10V3.13867Z" fill="#DAE0E7"/>
<path d="M16.9565 10.3125H15.6522V10.9851H16.9565V10.3125Z" fill="#A3B1C4"/>
<path d="M16.9565 9.63989H15.6522V10.3124H16.9565V9.63989Z" fill="#BEC8D6"/>
<path d="M4.3478 10.3125H3.04346V10.9851H4.3478V10.3125Z" fill="#BEC8D6"/>
<path d="M4.3478 9.63989H3.04346V10.3124H4.3478V9.63989Z" fill="#DAE0E7"/>
</svg>
