<svg width="34" height="18" viewBox="0 0 34 18" fill="none" xmlns="http://www.w3.org/2000/svg">
<path d="M21.0362 16.8667H7.36312C5.33773 16.8667 3.49695 16.0121 2.16285 14.6364C0.828086 13.2607 0 11.3625 0 9.27322C0 7.18466 0.828086 5.28646 2.16285 3.91075C3.49695 2.53435 5.33773 1.68044 7.36312 1.68044H20.1961C21.6265 0.623829 23.377 0 25.2603 0H25.2722C27.6721 0 29.8556 1.01278 31.4367 2.64323C33.0172 4.27368 34 6.52385 34 9C34 11.4755 33.0185 13.727 31.4347 15.3547C29.8516 16.9865 27.6695 18 25.2722 18H25.2603C23.7316 18 22.2906 17.5878 21.0362 16.8667ZM25.7258 10.2127L25.7543 10.2066C25.8088 10.4428 25.9423 10.6304 26.1554 10.7653C26.3679 10.9009 26.5891 10.9413 26.8202 10.8852L26.8268 10.9146C26.5964 10.9708 26.4151 11.1084 26.2843 11.3276C26.1528 11.548 26.1136 11.7761 26.168 12.013L26.1395 12.0199C26.085 11.7822 25.9516 11.5953 25.7391 11.4597C25.5259 11.3241 25.3041 11.2844 25.0737 11.3406L25.067 11.3111C25.2975 11.255 25.4788 11.1166 25.6102 10.8975C25.7424 10.6791 25.7802 10.451 25.7258 10.2127ZM28.1742 9.06437L28.2094 9.05615C28.2771 9.35403 28.4451 9.58891 28.7127 9.75873C28.9797 9.92924 29.2573 9.97923 29.5468 9.9087L29.5554 9.94499C29.2666 10.0155 29.0388 10.1881 28.8741 10.4647C28.7087 10.7407 28.6603 11.0276 28.728 11.3248L28.6928 11.333C28.6251 11.0352 28.4571 10.801 28.1895 10.6304C27.9225 10.4599 27.6443 10.41 27.3554 10.4805L27.3468 10.4442C27.6363 10.3737 27.8634 10.2011 28.0281 9.92513C28.1934 9.64985 28.2419 9.36225 28.1742 9.06437ZM25.5983 13.2422C24.5564 12.717 23.8066 11.6494 23.7196 10.3709C23.5895 8.46177 24.9847 6.80598 26.8354 6.67176C27.714 6.60808 28.5381 6.89911 29.1743 7.42639C29.4897 7.68797 29.8157 7.4572 29.6783 7.12782C28.9259 5.31865 27.125 4.11207 25.1135 4.25793C22.5708 4.44214 20.655 6.71696 20.8336 9.33828C21.0043 11.8507 23.0463 13.777 25.4628 13.7544C25.9084 13.7503 26.0027 13.4462 25.5983 13.2422ZM25.2603 16.9365H25.2722C29.5056 16.9365 32.9694 13.3654 32.9694 9C32.9694 4.63456 29.501 1.06277 25.2722 1.06277H25.2603C21.0315 1.06277 17.5631 4.63456 17.5631 9C17.5631 13.3654 21.0269 16.9365 25.2603 16.9365Z" fill="black"/>
</svg>
