<svg width="25" height="27" viewBox="0 0 25 27" fill="none" xmlns="http://www.w3.org/2000/svg">
<path d="M3.20312 26.1667C2.54687 26.1667 1.98784 25.9358 1.52604 25.474C1.06423 25.0122 0.833328 24.4531 0.833328 23.7969V5.20312C0.833328 4.54687 1.06423 3.98785 1.52604 3.52604C1.98784 3.06424 2.54687 2.83333 3.20312 2.83333H9.94791C10.0937 2.27431 10.3976 1.80035 10.8594 1.41146C11.3212 1.02257 11.8681 0.828125 12.5 0.828125C13.1319 0.828125 13.6846 1.02257 14.1581 1.41146C14.6326 1.80035 14.9306 2.27431 15.0521 2.83333H21.7969C22.4531 2.83333 23.0121 3.06424 23.474 3.52604C23.9358 3.98785 24.1667 4.54687 24.1667 5.20312V23.7969C24.1667 24.4531 23.9358 25.0122 23.474 25.474C23.0121 25.9358 22.4531 26.1667 21.7969 26.1667H3.20312ZM3.20312 24.7083H21.7969C22.0399 24.7083 22.2524 24.6169 22.4342 24.4342C22.6169 24.2524 22.7083 24.0399 22.7083 23.7969V5.20312C22.7083 4.96007 22.6169 4.74764 22.4342 4.56583C22.2524 4.38306 22.0399 4.29167 21.7969 4.29167H18.3333V7.53646H6.66666V4.29167H3.20312C2.96006 4.29167 2.74763 4.38306 2.56583 4.56583C2.38305 4.74764 2.29166 4.96007 2.29166 5.20312V23.7969C2.29166 24.0399 2.38305 24.2524 2.56583 24.4342C2.74763 24.6169 2.96006 24.7083 3.20312 24.7083ZM12.5 4.61979C12.8403 4.61979 13.1198 4.51042 13.3385 4.29167C13.5573 4.07292 13.6667 3.7934 13.6667 3.45313C13.6667 3.11285 13.5573 2.83333 13.3385 2.61458C13.1198 2.39583 12.8403 2.28646 12.5 2.28646C12.1597 2.28646 11.8802 2.39583 11.6615 2.61458C11.4427 2.83333 11.3333 3.11285 11.3333 3.45313C11.3333 3.7934 11.4427 4.07292 11.6615 4.29167C11.8802 4.51042 12.1597 4.61979 12.5 4.61979Z" fill="#1C1B1F"/>
</svg>
