<svg width="23" height="26" viewBox="0 0 23 26" fill="none" xmlns="http://www.w3.org/2000/svg">
<path d="M2.45826 25.6249C1.80201 25.6249 1.24881 25.4003 0.798674 24.9512C0.349508 24.501 0.124924 23.9357 0.124924 23.2551V3.20304C0.124924 2.52249 0.349508 1.95763 0.798674 1.50846C1.24881 1.05832 1.80201 0.833252 2.45826 0.833252H11.828V2.29159H2.45826C2.23951 2.29159 2.03923 2.38297 1.85742 2.56575C1.67465 2.74756 1.58326 2.95999 1.58326 3.20304V23.2551C1.58326 23.4982 1.67465 23.7106 1.85742 23.8924C2.03923 24.0752 2.23951 24.1666 2.45826 24.1666H11.828V25.6249H2.45826ZM17.7343 18.4062L16.7135 17.3489L20.0676 13.9583H7.45305V12.4999H20.0676L16.7135 9.10929L17.7343 8.052L22.8749 13.2291L17.7343 18.4062Z" fill="#5A5966"/>
</svg>
