<svg width="49" height="49" viewBox="0 0 49 49" fill="none" xmlns="http://www.w3.org/2000/svg">
<path d="M27.819 19.7361C27.8087 19.7361 27.7984 19.7361 27.7984 19.7361H24.4369C24.0141 19.7361 23.6635 20.0867 23.6635 20.5094V29.0886H22.5911C22.1683 29.0886 21.8177 29.4392 21.8177 29.8619C21.8177 30.2847 22.1683 30.6353 22.5911 30.6353H23.6635V31.9655H22.5911C22.1683 31.9655 21.8177 32.316 21.8177 32.7388C21.8177 33.1616 22.1683 33.5122 22.5911 33.5122H23.6635V37.5336C23.6635 37.9564 24.0141 38.307 24.4369 38.307C24.8596 38.307 25.2102 37.9564 25.2102 37.5336V33.5122H30.1185C30.5412 33.5122 30.8918 33.1616 30.8918 32.7388C30.8918 32.316 30.5412 31.9655 30.1185 31.9655H25.2102V30.6353H27.7984C30.6547 30.6353 32.9747 28.2121 32.9747 25.2218C32.9747 22.2418 30.7165 19.8289 27.819 19.7361ZM27.7984 29.0886H25.2102V21.2828H27.7881C29.8297 21.355 31.428 23.0873 31.428 25.2218C31.428 27.3562 29.7988 29.0886 27.7984 29.0886Z" fill="black"/>
<path d="M48.5657 27.181L33.5316 12.1675C34.6246 10.7136 35.1608 8.94003 35.037 7.1149C34.903 5.17635 34.0574 3.37185 32.6345 2.05198C31.2115 0.721804 29.3348 0 27.355 0C25.4061 0 23.5501 0.732117 22.1374 2.0726C20.7247 3.41309 19.8792 5.22791 19.7452 7.2077C19.7142 7.63047 20.0442 8.00169 20.467 8.03262C20.8897 8.06355 21.2609 7.73359 21.2919 7.31082C21.5084 4.03178 24.1172 1.55703 27.355 1.55703C30.6444 1.55703 33.2841 4.00084 33.5006 7.23864C33.5934 8.66162 33.1913 10.0021 32.4386 11.0848L27.984 6.64057C27.685 6.34154 27.19 6.34154 26.891 6.64057L6.22685 27.2016C6.08249 27.346 6 27.5419 6 27.7481C6 27.9543 6.08249 28.1503 6.22685 28.2946L26.891 48.7731C27.0457 48.9175 27.2416 49 27.4375 49C27.6334 49 27.8293 48.9278 27.984 48.7731L48.5657 28.2946C48.71 28.1503 48.7925 27.9543 48.7925 27.7481C48.7925 27.5213 48.71 27.3253 48.5657 27.181ZM27.4375 47.113L7.87668 27.7275L27.4375 8.25947L31.3868 12.2088C31.0774 12.4769 30.7269 12.714 30.3659 12.9099C29.8401 11.7963 28.7264 11.0332 27.4375 11.0332C25.5608 11.0332 24.0966 12.4975 24.0966 14.3742C24.0966 16.1684 25.5918 17.6326 27.4375 17.6326C29.2008 17.6326 30.634 16.2302 30.6959 14.4773C31.3455 14.1782 31.9436 13.7864 32.4798 13.3018L46.9261 27.7275L27.4375 47.113ZM27.4684 14.4567C27.5097 14.8485 27.85 15.1475 28.2315 15.1475C28.2624 15.1475 28.2934 15.1475 28.314 15.1475C28.5408 15.1269 28.778 15.0856 29.0048 15.0341C28.7367 15.6425 28.1284 16.0859 27.4272 16.0859C26.4167 16.0859 25.633 15.3331 25.633 14.3742C25.633 13.3533 26.4064 12.58 27.4272 12.58C28.0665 12.58 28.6233 12.9306 28.912 13.4668C28.6646 13.5286 28.4068 13.5699 28.149 13.6008C27.7262 13.6524 27.4272 14.0339 27.4684 14.4567Z" fill="black"/>
</svg>
