<svg width="73" height="73" viewBox="0 0 73 73" fill="none" xmlns="http://www.w3.org/2000/svg">
<g clip-path="url(#clip0_28_34)">
<path d="M0 0H73V73H0V0Z" fill="white"/>
<path d="M48.6667 4.42419H50.8788V6.63632H48.6667V4.42419Z" fill="black"/>
<path d="M46.4545 4.42419H48.6666V6.63632H46.4545V4.42419Z" fill="black"/>
<path d="M44.2424 4.42419H46.4545V6.63632H44.2424V4.42419Z" fill="black"/>
<path d="M37.6061 4.42419H39.8182V6.63632H37.6061V4.42419Z" fill="black"/>
<path d="M35.3939 4.42419H37.606V6.63632H35.3939V4.42419Z" fill="black"/>
<path d="M33.1818 4.42419H35.3939V6.63632H33.1818V4.42419Z" fill="black"/>
<path d="M26.5454 4.42419H28.7576V6.63632H26.5454V4.42419Z" fill="black"/>
<path d="M48.6667 6.63635H50.8788V8.84847H48.6667V6.63635Z" fill="black"/>
<path d="M46.4545 6.63635H48.6666V8.84847H46.4545V6.63635Z" fill="black"/>
<path d="M44.2424 6.63635H46.4545V8.84847H44.2424V6.63635Z" fill="black"/>
<path d="M42.0303 6.63635H44.2424V8.84847H42.0303V6.63635Z" fill="black"/>
<path d="M39.8182 6.63635H42.0303V8.84847H39.8182V6.63635Z" fill="black"/>
<path d="M37.6061 6.63635H39.8182V8.84847H37.6061V6.63635Z" fill="black"/>
<path d="M35.3939 6.63635H37.606V8.84847H35.3939V6.63635Z" fill="black"/>
<path d="M33.1818 6.63635H35.3939V8.84847H33.1818V6.63635Z" fill="black"/>
<path d="M28.7575 6.63635H30.9697V8.84847H28.7575V6.63635Z" fill="black"/>
<path d="M26.5454 6.63635H28.7576V8.84847H26.5454V6.63635Z" fill="black"/>
<path d="M24.3333 6.63635H26.5454V8.84847H24.3333V6.63635Z" fill="black"/>
<path d="M22.1212 6.63635H24.3333V8.84847H22.1212V6.63635Z" fill="black"/>
<path d="M48.6667 8.84839H50.8788V11.0605H48.6667V8.84839Z" fill="black"/>
<path d="M46.4545 8.84839H48.6666V11.0605H46.4545V8.84839Z" fill="black"/>
<path d="M44.2424 8.84839H46.4545V11.0605H44.2424V8.84839Z" fill="black"/>
<path d="M42.0303 8.84839H44.2424V11.0605H42.0303V8.84839Z" fill="black"/>
<path d="M37.6061 8.84839H39.8182V11.0605H37.6061V8.84839Z" fill="black"/>
<path d="M35.3939 8.84839H37.606V11.0605H35.3939V8.84839Z" fill="black"/>
<path d="M22.1212 8.84839H24.3333V11.0605H22.1212V8.84839Z" fill="black"/>
<path d="M46.4545 11.0605H48.6666V13.2727H46.4545V11.0605Z" fill="black"/>
<path d="M44.2424 11.0605H46.4545V13.2727H44.2424V11.0605Z" fill="black"/>
<path d="M42.0303 11.0605H44.2424V13.2727H42.0303V11.0605Z" fill="black"/>
<path d="M39.8182 11.0605H42.0303V13.2727H39.8182V11.0605Z" fill="black"/>
<path d="M35.3939 11.0605H37.606V13.2727H35.3939V11.0605Z" fill="black"/>
<path d="M33.1818 11.0605H35.3939V13.2727H33.1818V11.0605Z" fill="black"/>
<path d="M28.7575 11.0605H30.9697V13.2727H28.7575V11.0605Z" fill="black"/>
<path d="M24.3333 11.0605H26.5454V13.2727H24.3333V11.0605Z" fill="black"/>
<path d="M22.1212 11.0605H24.3333V13.2727H22.1212V11.0605Z" fill="black"/>
<path d="M48.6667 13.2727H50.8788V15.4848H48.6667V13.2727Z" fill="black"/>
<path d="M46.4545 13.2727H48.6666V15.4848H46.4545V13.2727Z" fill="black"/>
<path d="M44.2424 13.2727H46.4545V15.4848H44.2424V13.2727Z" fill="black"/>
<path d="M39.8182 13.2727H42.0303V15.4848H39.8182V13.2727Z" fill="black"/>
<path d="M37.6061 13.2727H39.8182V15.4848H37.6061V13.2727Z" fill="black"/>
<path d="M33.1818 13.2727H35.3939V15.4848H33.1818V13.2727Z" fill="black"/>
<path d="M28.7575 13.2727H30.9697V15.4848H28.7575V13.2727Z" fill="black"/>
<path d="M26.5454 13.2727H28.7576V15.4848H26.5454V13.2727Z" fill="black"/>
<path d="M24.3333 13.2727H26.5454V15.4848H24.3333V13.2727Z" fill="black"/>
<path d="M46.4545 15.4847H48.6666V17.6969H46.4545V15.4847Z" fill="black"/>
<path d="M37.6061 15.4847H39.8182V17.6969H37.6061V15.4847Z" fill="black"/>
<path d="M35.3939 15.4847H37.606V17.6969H35.3939V15.4847Z" fill="black"/>
<path d="M28.7575 15.4847H30.9697V17.6969H28.7575V15.4847Z" fill="black"/>
<path d="M22.1212 15.4847H24.3333V17.6969H22.1212V15.4847Z" fill="black"/>
<path d="M48.6667 17.6969H50.8788V19.909H48.6667V17.6969Z" fill="black"/>
<path d="M44.2424 17.6969H46.4545V19.909H44.2424V17.6969Z" fill="black"/>
<path d="M39.8182 17.6969H42.0303V19.909H39.8182V17.6969Z" fill="black"/>
<path d="M35.3939 17.6969H37.606V19.909H35.3939V17.6969Z" fill="black"/>
<path d="M30.9697 17.6969H33.1818V19.909H30.9697V17.6969Z" fill="black"/>
<path d="M26.5454 17.6969H28.7576V19.909H26.5454V17.6969Z" fill="black"/>
<path d="M22.1212 17.6969H24.3333V19.909H22.1212V17.6969Z" fill="black"/>
<path d="M46.4545 19.9091H48.6666V22.1212H46.4545V19.9091Z" fill="black"/>
<path d="M39.8182 19.9091H42.0303V22.1212H39.8182V19.9091Z" fill="black"/>
<path d="M35.3939 19.9091H37.606V22.1212H35.3939V19.9091Z" fill="black"/>
<path d="M66.3636 22.1212H68.5757V24.3333H66.3636V22.1212Z" fill="black"/>
<path d="M59.7273 22.1212H61.9394V24.3333H59.7273V22.1212Z" fill="black"/>
<path d="M57.5151 22.1212H59.7272V24.3333H57.5151V22.1212Z" fill="black"/>
<path d="M55.303 22.1212H57.5151V24.3333H55.303V22.1212Z" fill="black"/>
<path d="M53.0909 22.1212H55.303V24.3333H53.0909V22.1212Z" fill="black"/>
<path d="M50.8788 22.1212H53.0909V24.3333H50.8788V22.1212Z" fill="black"/>
<path d="M48.6667 22.1212H50.8788V24.3333H48.6667V22.1212Z" fill="black"/>
<path d="M46.4545 22.1212H48.6666V24.3333H46.4545V22.1212Z" fill="black"/>
<path d="M39.8182 22.1212H42.0303V24.3333H39.8182V22.1212Z" fill="black"/>
<path d="M37.6061 22.1212H39.8182V24.3333H37.6061V22.1212Z" fill="black"/>
<path d="M35.3939 22.1212H37.606V24.3333H35.3939V22.1212Z" fill="black"/>
<path d="M33.1818 22.1212H35.3939V24.3333H33.1818V22.1212Z" fill="black"/>
<path d="M30.9697 22.1212H33.1818V24.3333H30.9697V22.1212Z" fill="black"/>
<path d="M28.7575 22.1212H30.9697V24.3333H28.7575V22.1212Z" fill="black"/>
<path d="M19.9091 22.1212H22.1212V24.3333H19.9091V22.1212Z" fill="black"/>
<path d="M13.2727 22.1212H15.4849V24.3333H13.2727V22.1212Z" fill="black"/>
<path d="M8.84849 22.1212H11.0606V24.3333H8.84849V22.1212Z" fill="black"/>
<path d="M6.63633 22.1212H8.84845V24.3333H6.63633V22.1212Z" fill="black"/>
<path d="M4.42423 22.1212H6.63635V24.3333H4.42423V22.1212Z" fill="black"/>
<path d="M66.3636 24.3333H68.5757V26.5454H66.3636V24.3333Z" fill="black"/>
<path d="M61.9394 24.3333H64.1515V26.5454H61.9394V24.3333Z" fill="black"/>
<path d="M48.6667 24.3333H50.8788V26.5454H48.6667V24.3333Z" fill="black"/>
<path d="M39.8182 24.3333H42.0303V26.5454H39.8182V24.3333Z" fill="black"/>
<path d="M35.3939 24.3333H37.606V26.5454H35.3939V24.3333Z" fill="black"/>
<path d="M28.7575 24.3333H30.9697V26.5454H28.7575V24.3333Z" fill="black"/>
<path d="M24.3333 24.3333H26.5454V26.5454H24.3333V24.3333Z" fill="black"/>
<path d="M19.9091 24.3333H22.1212V26.5454H19.9091V24.3333Z" fill="black"/>
<path d="M15.4848 24.3333H17.697V26.5454H15.4848V24.3333Z" fill="black"/>
<path d="M13.2727 24.3333H15.4849V26.5454H13.2727V24.3333Z" fill="black"/>
<path d="M8.84849 24.3333H11.0606V26.5454H8.84849V24.3333Z" fill="black"/>
<path d="M6.63633 24.3333H8.84845V26.5454H6.63633V24.3333Z" fill="black"/>
<path d="M64.1515 26.5454H66.3636V28.7575H64.1515V26.5454Z" fill="black"/>
<path d="M61.9394 26.5454H64.1515V28.7575H61.9394V26.5454Z" fill="black"/>
<path d="M57.5151 26.5454H59.7272V28.7575H57.5151V26.5454Z" fill="black"/>
<path d="M55.303 26.5454H57.5151V28.7575H55.303V26.5454Z" fill="black"/>
<path d="M53.0909 26.5454H55.303V28.7575H53.0909V26.5454Z" fill="black"/>
<path d="M46.4545 26.5454H48.6666V28.7575H46.4545V26.5454Z" fill="black"/>
<path d="M44.2424 26.5454H46.4545V28.7575H44.2424V26.5454Z" fill="black"/>
<path d="M35.3939 26.5454H37.606V28.7575H35.3939V26.5454Z" fill="black"/>
<path d="M28.7575 26.5454H30.9697V28.7575H28.7575V26.5454Z" fill="black"/>
<path d="M26.5454 26.5454H28.7576V28.7575H26.5454V26.5454Z" fill="black"/>
<path d="M19.9091 26.5454H22.1212V28.7575H19.9091V26.5454Z" fill="black"/>
<path d="M15.4848 26.5454H17.697V28.7575H15.4848V26.5454Z" fill="black"/>
<path d="M8.84849 26.5454H11.0606V28.7575H8.84849V26.5454Z" fill="black"/>
<path d="M59.7273 28.7576H61.9394V30.9697H59.7273V28.7576Z" fill="black"/>
<path d="M57.5151 28.7576H59.7272V30.9697H57.5151V28.7576Z" fill="black"/>
<path d="M48.6667 28.7576H50.8788V30.9697H48.6667V28.7576Z" fill="black"/>
<path d="M46.4545 28.7576H48.6666V30.9697H46.4545V28.7576Z" fill="black"/>
<path d="M44.2424 28.7576H46.4545V30.9697H44.2424V28.7576Z" fill="black"/>
<path d="M35.3939 28.7576H37.606V30.9697H35.3939V28.7576Z" fill="black"/>
<path d="M33.1818 28.7576H35.3939V30.9697H33.1818V28.7576Z" fill="black"/>
<path d="M28.7575 28.7576H30.9697V30.9697H28.7575V28.7576Z" fill="black"/>
<path d="M22.1212 28.7576H24.3333V30.9697H22.1212V28.7576Z" fill="black"/>
<path d="M19.9091 28.7576H22.1212V30.9697H19.9091V28.7576Z" fill="black"/>
<path d="M17.6969 28.7576H19.9091V30.9697H17.6969V28.7576Z" fill="black"/>
<path d="M11.0606 28.7576H13.2727V30.9697H11.0606V28.7576Z" fill="black"/>
<path d="M4.42423 28.7576H6.63635V30.9697H4.42423V28.7576Z" fill="black"/>
<path d="M66.3636 30.9696H68.5757V33.1817H66.3636V30.9696Z" fill="black"/>
<path d="M64.1515 30.9696H66.3636V33.1817H64.1515V30.9696Z" fill="black"/>
<path d="M61.9394 30.9696H64.1515V33.1817H61.9394V30.9696Z" fill="black"/>
<path d="M59.7273 30.9696H61.9394V33.1817H59.7273V30.9696Z" fill="black"/>
<path d="M53.0909 30.9696H55.303V33.1817H53.0909V30.9696Z" fill="black"/>
<path d="M44.2424 30.9696H46.4545V33.1817H44.2424V30.9696Z" fill="black"/>
<path d="M39.8182 30.9696H42.0303V33.1817H39.8182V30.9696Z" fill="black"/>
<path d="M37.6061 30.9696H39.8182V33.1817H37.6061V30.9696Z" fill="black"/>
<path d="M35.3939 30.9696H37.606V33.1817H35.3939V30.9696Z" fill="black"/>
<path d="M26.5454 30.9696H28.7576V33.1817H26.5454V30.9696Z" fill="black"/>
<path d="M22.1212 30.9696H24.3333V33.1817H22.1212V30.9696Z" fill="black"/>
<path d="M17.6969 30.9696H19.9091V33.1817H17.6969V30.9696Z" fill="black"/>
<path d="M15.4848 30.9696H17.697V33.1817H15.4848V30.9696Z" fill="black"/>
<path d="M4.42423 30.9696H6.63635V33.1817H4.42423V30.9696Z" fill="black"/>
<path d="M61.9394 33.1818H64.1515V35.3939H61.9394V33.1818Z" fill="black"/>
<path d="M42.0303 33.1818H44.2424V35.3939H42.0303V33.1818Z" fill="black"/>
<path d="M39.8182 33.1818H42.0303V35.3939H39.8182V33.1818Z" fill="black"/>
<path d="M28.7575 33.1818H30.9697V35.3939H28.7575V33.1818Z" fill="black"/>
<path d="M26.5454 33.1818H28.7576V35.3939H26.5454V33.1818Z" fill="black"/>
<path d="M19.9091 33.1818H22.1212V35.3939H19.9091V33.1818Z" fill="black"/>
<path d="M17.6969 33.1818H19.9091V35.3939H17.6969V33.1818Z" fill="black"/>
<path d="M13.2727 33.1818H15.4849V35.3939H13.2727V33.1818Z" fill="black"/>
<path d="M11.0606 33.1818H13.2727V35.3939H11.0606V33.1818Z" fill="black"/>
<path d="M8.84849 33.1818H11.0606V35.3939H8.84849V33.1818Z" fill="black"/>
<path d="M6.63633 33.1818H8.84845V35.3939H6.63633V33.1818Z" fill="black"/>
<path d="M4.42423 33.1818H6.63635V35.3939H4.42423V33.1818Z" fill="black"/>
<path d="M64.1515 35.3939H66.3636V37.606H64.1515V35.3939Z" fill="black"/>
<path d="M55.303 35.3939H57.5151V37.606H55.303V35.3939Z" fill="black"/>
<path d="M53.0909 35.3939H55.303V37.606H53.0909V35.3939Z" fill="black"/>
<path d="M50.8788 35.3939H53.0909V37.606H50.8788V35.3939Z" fill="black"/>
<path d="M48.6667 35.3939H50.8788V37.606H48.6667V35.3939Z" fill="black"/>
<path d="M44.2424 35.3939H46.4545V37.606H44.2424V35.3939Z" fill="black"/>
<path d="M35.3939 35.3939H37.606V37.606H35.3939V35.3939Z" fill="black"/>
<path d="M33.1818 35.3939H35.3939V37.606H33.1818V35.3939Z" fill="black"/>
<path d="M28.7575 35.3939H30.9697V37.606H28.7575V35.3939Z" fill="black"/>
<path d="M24.3333 35.3939H26.5454V37.606H24.3333V35.3939Z" fill="black"/>
<path d="M22.1212 35.3939H24.3333V37.606H22.1212V35.3939Z" fill="black"/>
<path d="M19.9091 35.3939H22.1212V37.606H19.9091V35.3939Z" fill="black"/>
<path d="M17.6969 35.3939H19.9091V37.606H17.6969V35.3939Z" fill="black"/>
<path d="M15.4848 35.3939H17.697V37.606H15.4848V35.3939Z" fill="black"/>
<path d="M8.84849 35.3939H11.0606V37.606H8.84849V35.3939Z" fill="black"/>
<path d="M4.42423 35.3939H6.63635V37.606H4.42423V35.3939Z" fill="black"/>
<path d="M66.3636 37.606H68.5757V39.8181H66.3636V37.606Z" fill="black"/>
<path d="M64.1515 37.606H66.3636V39.8181H64.1515V37.606Z" fill="black"/>
<path d="M57.5151 37.606H59.7272V39.8181H57.5151V37.606Z" fill="black"/>
<path d="M50.8788 37.606H53.0909V39.8181H50.8788V37.606Z" fill="black"/>
<path d="M46.4545 37.606H48.6666V39.8181H46.4545V37.606Z" fill="black"/>
<path d="M44.2424 37.606H46.4545V39.8181H44.2424V37.606Z" fill="black"/>
<path d="M37.6061 37.606H39.8182V39.8181H37.6061V37.606Z" fill="black"/>
<path d="M35.3939 37.606H37.606V39.8181H35.3939V37.606Z" fill="black"/>
<path d="M30.9697 37.606H33.1818V39.8181H30.9697V37.606Z" fill="black"/>
<path d="M26.5454 37.606H28.7576V39.8181H26.5454V37.606Z" fill="black"/>
<path d="M15.4848 37.606H17.697V39.8181H15.4848V37.606Z" fill="black"/>
<path d="M13.2727 37.606H15.4849V39.8181H13.2727V37.606Z" fill="black"/>
<path d="M8.84849 37.606H11.0606V39.8181H8.84849V37.606Z" fill="black"/>
<path d="M4.42423 37.606H6.63635V39.8181H4.42423V37.606Z" fill="black"/>
<path d="M57.5151 39.8181H59.7272V42.0302H57.5151V39.8181Z" fill="black"/>
<path d="M53.0909 39.8181H55.303V42.0302H53.0909V39.8181Z" fill="black"/>
<path d="M39.8182 39.8181H42.0303V42.0302H39.8182V39.8181Z" fill="black"/>
<path d="M33.1818 39.8181H35.3939V42.0302H33.1818V39.8181Z" fill="black"/>
<path d="M24.3333 39.8181H26.5454V42.0302H24.3333V39.8181Z" fill="black"/>
<path d="M22.1212 39.8181H24.3333V42.0302H22.1212V39.8181Z" fill="black"/>
<path d="M11.0606 39.8181H13.2727V42.0302H11.0606V39.8181Z" fill="black"/>
<path d="M66.3636 42.0303H68.5757V44.2424H66.3636V42.0303Z" fill="black"/>
<path d="M59.7273 42.0303H61.9394V44.2424H59.7273V42.0303Z" fill="black"/>
<path d="M48.6667 42.0303H50.8788V44.2424H48.6667V42.0303Z" fill="black"/>
<path d="M46.4545 42.0303H48.6666V44.2424H46.4545V42.0303Z" fill="black"/>
<path d="M28.7575 42.0303H30.9697V44.2424H28.7575V42.0303Z" fill="black"/>
<path d="M26.5454 42.0303H28.7576V44.2424H26.5454V42.0303Z" fill="black"/>
<path d="M24.3333 42.0303H26.5454V44.2424H24.3333V42.0303Z" fill="black"/>
<path d="M13.2727 42.0303H15.4849V44.2424H13.2727V42.0303Z" fill="black"/>
<path d="M8.84849 42.0303H11.0606V44.2424H8.84849V42.0303Z" fill="black"/>
<path d="M6.63633 42.0303H8.84845V44.2424H6.63633V42.0303Z" fill="black"/>
<path d="M66.3636 44.2424H68.5757V46.4546H66.3636V44.2424Z" fill="black"/>
<path d="M64.1515 44.2424H66.3636V46.4546H64.1515V44.2424Z" fill="black"/>
<path d="M61.9394 44.2424H64.1515V46.4546H61.9394V44.2424Z" fill="black"/>
<path d="M53.0909 44.2424H55.303V46.4546H53.0909V44.2424Z" fill="black"/>
<path d="M50.8788 44.2424H53.0909V46.4546H50.8788V44.2424Z" fill="black"/>
<path d="M46.4545 44.2424H48.6666V46.4546H46.4545V44.2424Z" fill="black"/>
<path d="M44.2424 44.2424H46.4545V46.4546H44.2424V44.2424Z" fill="black"/>
<path d="M37.6061 44.2424H39.8182V46.4546H37.6061V44.2424Z" fill="black"/>
<path d="M35.3939 44.2424H37.606V46.4546H35.3939V44.2424Z" fill="black"/>
<path d="M30.9697 44.2424H33.1818V46.4546H30.9697V44.2424Z" fill="black"/>
<path d="M26.5454 44.2424H28.7576V46.4546H26.5454V44.2424Z" fill="black"/>
<path d="M24.3333 44.2424H26.5454V46.4546H24.3333V44.2424Z" fill="black"/>
<path d="M19.9091 44.2424H22.1212V46.4546H19.9091V44.2424Z" fill="black"/>
<path d="M17.6969 44.2424H19.9091V46.4546H17.6969V44.2424Z" fill="black"/>
<path d="M11.0606 44.2424H13.2727V46.4546H11.0606V44.2424Z" fill="black"/>
<path d="M4.42423 44.2424H6.63635V46.4546H4.42423V44.2424Z" fill="black"/>
<path d="M66.3636 46.4545H68.5757V48.6666H66.3636V46.4545Z" fill="black"/>
<path d="M64.1515 46.4545H66.3636V48.6666H64.1515V46.4545Z" fill="black"/>
<path d="M57.5151 46.4545H59.7272V48.6666H57.5151V46.4545Z" fill="black"/>
<path d="M55.303 46.4545H57.5151V48.6666H55.303V46.4545Z" fill="black"/>
<path d="M50.8788 46.4545H53.0909V48.6666H50.8788V46.4545Z" fill="black"/>
<path d="M48.6667 46.4545H50.8788V48.6666H48.6667V46.4545Z" fill="black"/>
<path d="M46.4545 46.4545H48.6666V48.6666H46.4545V46.4545Z" fill="black"/>
<path d="M44.2424 46.4545H46.4545V48.6666H44.2424V46.4545Z" fill="black"/>
<path d="M42.0303 46.4545H44.2424V48.6666H42.0303V46.4545Z" fill="black"/>
<path d="M37.6061 46.4545H39.8182V48.6666H37.6061V46.4545Z" fill="black"/>
<path d="M33.1818 46.4545H35.3939V48.6666H33.1818V46.4545Z" fill="black"/>
<path d="M30.9697 46.4545H33.1818V48.6666H30.9697V46.4545Z" fill="black"/>
<path d="M24.3333 46.4545H26.5454V48.6666H24.3333V46.4545Z" fill="black"/>
<path d="M19.9091 46.4545H22.1212V48.6666H19.9091V46.4545Z" fill="black"/>
<path d="M17.6969 46.4545H19.9091V48.6666H17.6969V46.4545Z" fill="black"/>
<path d="M15.4848 46.4545H17.697V48.6666H15.4848V46.4545Z" fill="black"/>
<path d="M13.2727 46.4545H15.4849V48.6666H13.2727V46.4545Z" fill="black"/>
<path d="M11.0606 46.4545H13.2727V48.6666H11.0606V46.4545Z" fill="black"/>
<path d="M8.84849 46.4545H11.0606V48.6666H8.84849V46.4545Z" fill="black"/>
<path d="M66.3636 48.6666H68.5757V50.8787H66.3636V48.6666Z" fill="black"/>
<path d="M64.1515 48.6666H66.3636V50.8787H64.1515V48.6666Z" fill="black"/>
<path d="M61.9394 48.6666H64.1515V50.8787H61.9394V48.6666Z" fill="black"/>
<path d="M55.303 48.6666H57.5151V50.8787H55.303V48.6666Z" fill="black"/>
<path d="M53.0909 48.6666H55.303V50.8787H53.0909V48.6666Z" fill="black"/>
<path d="M46.4545 48.6666H48.6666V50.8787H46.4545V48.6666Z" fill="black"/>
<path d="M44.2424 48.6666H46.4545V50.8787H44.2424V48.6666Z" fill="black"/>
<path d="M39.8182 48.6666H42.0303V50.8787H39.8182V48.6666Z" fill="black"/>
<path d="M37.6061 48.6666H39.8182V50.8787H37.6061V48.6666Z" fill="black"/>
<path d="M28.7575 48.6666H30.9697V50.8787H28.7575V48.6666Z" fill="black"/>
<path d="M24.3333 48.6666H26.5454V50.8787H24.3333V48.6666Z" fill="black"/>
<path d="M22.1212 48.6666H24.3333V50.8787H22.1212V48.6666Z" fill="black"/>
<path d="M19.9091 48.6666H22.1212V50.8787H19.9091V48.6666Z" fill="black"/>
<path d="M17.6969 48.6666H19.9091V50.8787H17.6969V48.6666Z" fill="black"/>
<path d="M15.4848 48.6666H17.697V50.8787H15.4848V48.6666Z" fill="black"/>
<path d="M13.2727 48.6666H15.4849V50.8787H13.2727V48.6666Z" fill="black"/>
<path d="M11.0606 48.6666H13.2727V50.8787H11.0606V48.6666Z" fill="black"/>
<path d="M8.84849 48.6666H11.0606V50.8787H8.84849V48.6666Z" fill="black"/>
<path d="M6.63633 48.6666H8.84845V50.8787H6.63633V48.6666Z" fill="black"/>
<path d="M48.6667 50.8788H50.8788V53.0909H48.6667V50.8788Z" fill="black"/>
<path d="M42.0303 50.8788H44.2424V53.0909H42.0303V50.8788Z" fill="black"/>
<path d="M37.6061 50.8788H39.8182V53.0909H37.6061V50.8788Z" fill="black"/>
<path d="M30.9697 50.8788H33.1818V53.0909H30.9697V50.8788Z" fill="black"/>
<path d="M28.7575 50.8788H30.9697V53.0909H28.7575V50.8788Z" fill="black"/>
<path d="M26.5454 50.8788H28.7576V53.0909H26.5454V50.8788Z" fill="black"/>
<path d="M22.1212 50.8788H24.3333V53.0909H22.1212V50.8788Z" fill="black"/>
<path d="M13.2727 50.8788H15.4849V53.0909H13.2727V50.8788Z" fill="black"/>
<path d="M11.0606 50.8788H13.2727V53.0909H11.0606V50.8788Z" fill="black"/>
<path d="M48.6667 53.0908H50.8788V55.3029H48.6667V53.0908Z" fill="black"/>
<path d="M37.6061 53.0908H39.8182V55.3029H37.6061V53.0908Z" fill="black"/>
<path d="M33.1818 53.0908H35.3939V55.3029H33.1818V53.0908Z" fill="black"/>
<path d="M30.9697 53.0908H33.1818V55.3029H30.9697V53.0908Z" fill="black"/>
<path d="M24.3333 53.0908H26.5454V55.3029H24.3333V53.0908Z" fill="black"/>
<path d="M22.1212 53.0908H24.3333V55.3029H22.1212V53.0908Z" fill="black"/>
<path d="M17.6969 53.0908H19.9091V55.3029H17.6969V53.0908Z" fill="black"/>
<path d="M13.2727 53.0908H15.4849V55.3029H13.2727V53.0908Z" fill="black"/>
<path d="M11.0606 53.0908H13.2727V55.3029H11.0606V53.0908Z" fill="black"/>
<path d="M48.6667 55.303H50.8788V57.5151H48.6667V55.303Z" fill="black"/>
<path d="M46.4545 55.303H48.6666V57.5151H46.4545V55.303Z" fill="black"/>
<path d="M44.2424 55.303H46.4545V57.5151H44.2424V55.303Z" fill="black"/>
<path d="M39.8182 55.303H42.0303V57.5151H39.8182V55.303Z" fill="black"/>
<path d="M37.6061 55.303H39.8182V57.5151H37.6061V55.303Z" fill="black"/>
<path d="M30.9697 55.303H33.1818V57.5151H30.9697V55.303Z" fill="black"/>
<path d="M28.7575 55.303H30.9697V57.5151H28.7575V55.303Z" fill="black"/>
<path d="M24.3333 55.303H26.5454V57.5151H24.3333V55.303Z" fill="black"/>
<path d="M22.1212 55.303H24.3333V57.5151H22.1212V55.303Z" fill="black"/>
<path d="M13.2727 55.303H15.4849V57.5151H13.2727V55.303Z" fill="black"/>
<path d="M6.63633 55.303H8.84845V57.5151H6.63633V55.303Z" fill="black"/>
<path d="M4.42423 55.303H6.63635V57.5151H4.42423V55.303Z" fill="black"/>
<path d="M48.6667 57.5151H50.8788V59.7273H48.6667V57.5151Z" fill="black"/>
<path d="M42.0303 57.5151H44.2424V59.7273H42.0303V57.5151Z" fill="black"/>
<path d="M39.8182 57.5151H42.0303V59.7273H39.8182V57.5151Z" fill="black"/>
<path d="M37.6061 57.5151H39.8182V59.7273H37.6061V57.5151Z" fill="black"/>
<path d="M33.1818 57.5151H35.3939V59.7273H33.1818V57.5151Z" fill="black"/>
<path d="M30.9697 57.5151H33.1818V59.7273H30.9697V57.5151Z" fill="black"/>
<path d="M24.3333 57.5151H26.5454V59.7273H24.3333V57.5151Z" fill="black"/>
<path d="M22.1212 57.5151H24.3333V59.7273H22.1212V57.5151Z" fill="black"/>
<path d="M19.9091 57.5151H22.1212V59.7273H19.9091V57.5151Z" fill="black"/>
<path d="M17.6969 57.5151H19.9091V59.7273H17.6969V57.5151Z" fill="black"/>
<path d="M15.4848 57.5151H17.697V59.7273H15.4848V57.5151Z" fill="black"/>
<path d="M13.2727 57.5151H15.4849V59.7273H13.2727V57.5151Z" fill="black"/>
<path d="M11.0606 57.5151H13.2727V59.7273H11.0606V57.5151Z" fill="black"/>
<path d="M48.6667 59.7272H50.8788V61.9393H48.6667V59.7272Z" fill="black"/>
<path d="M39.8182 59.7272H42.0303V61.9393H39.8182V59.7272Z" fill="black"/>
<path d="M37.6061 59.7272H39.8182V61.9393H37.6061V59.7272Z" fill="black"/>
<path d="M35.3939 59.7272H37.606V61.9393H35.3939V59.7272Z" fill="black"/>
<path d="M30.9697 59.7272H33.1818V61.9393H30.9697V59.7272Z" fill="black"/>
<path d="M28.7575 59.7272H30.9697V61.9393H28.7575V59.7272Z" fill="black"/>
<path d="M26.5454 59.7272H28.7576V61.9393H26.5454V59.7272Z" fill="black"/>
<path d="M24.3333 59.7272H26.5454V61.9393H24.3333V59.7272Z" fill="black"/>
<path d="M22.1212 59.7272H24.3333V61.9393H22.1212V59.7272Z" fill="black"/>
<path d="M19.9091 59.7272H22.1212V61.9393H19.9091V59.7272Z" fill="black"/>
<path d="M15.4848 59.7272H17.697V61.9393H15.4848V59.7272Z" fill="black"/>
<path d="M6.63633 59.7272H8.84845V61.9393H6.63633V59.7272Z" fill="black"/>
<path d="M44.2424 61.9393H46.4545V64.1515H44.2424V61.9393Z" fill="black"/>
<path d="M37.6061 61.9393H39.8182V64.1515H37.6061V61.9393Z" fill="black"/>
<path d="M30.9697 61.9393H33.1818V64.1515H30.9697V61.9393Z" fill="black"/>
<path d="M19.9091 61.9393H22.1212V64.1515H19.9091V61.9393Z" fill="black"/>
<path d="M15.4848 61.9393H17.697V64.1515H15.4848V61.9393Z" fill="black"/>
<path d="M13.2727 61.9393H15.4849V64.1515H13.2727V61.9393Z" fill="black"/>
<path d="M8.84849 61.9393H11.0606V64.1515H8.84849V61.9393Z" fill="black"/>
<path d="M6.63633 61.9393H8.84845V64.1515H6.63633V61.9393Z" fill="black"/>
<path d="M4.42423 61.9393H6.63635V64.1515H4.42423V61.9393Z" fill="black"/>
<path d="M42.0303 64.1515H44.2424V66.3636H42.0303V64.1515Z" fill="black"/>
<path d="M37.6061 64.1515H39.8182V66.3636H37.6061V64.1515Z" fill="black"/>
<path d="M33.1818 64.1515H35.3939V66.3636H33.1818V64.1515Z" fill="black"/>
<path d="M19.9091 64.1515H22.1212V66.3636H19.9091V64.1515Z" fill="black"/>
<path d="M15.4848 64.1515H17.697V66.3636H15.4848V64.1515Z" fill="black"/>
<path d="M11.0606 64.1515H13.2727V66.3636H11.0606V64.1515Z" fill="black"/>
<path d="M8.84849 64.1515H11.0606V66.3636H8.84849V64.1515Z" fill="black"/>
<path d="M4.42423 64.1515H6.63635V66.3636H4.42423V64.1515Z" fill="black"/>
<path d="M48.6667 66.3636H50.8788V68.5758H48.6667V66.3636Z" fill="black"/>
<path d="M42.0303 66.3636H44.2424V68.5758H42.0303V66.3636Z" fill="black"/>
<path d="M39.8182 66.3636H42.0303V68.5758H39.8182V66.3636Z" fill="black"/>
<path d="M28.7575 66.3636H30.9697V68.5758H28.7575V66.3636Z" fill="black"/>
<path d="M26.5454 66.3636H28.7576V68.5758H26.5454V66.3636Z" fill="black"/>
<path d="M24.3333 66.3636H26.5454V68.5758H24.3333V66.3636Z" fill="black"/>
<path d="M22.1212 66.3636H24.3333V68.5758H22.1212V66.3636Z" fill="black"/>
<path d="M17.6969 66.3636H19.9091V68.5758H17.6969V66.3636Z" fill="black"/>
<path d="M13.2727 66.3636H15.4849V68.5758H13.2727V66.3636Z" fill="black"/>
<path d="M11.0606 66.3636H13.2727V68.5758H11.0606V66.3636Z" fill="black"/>
<path d="M55.4136 4.42419H66.253H68.5757V6.74692V17.5863V19.909H66.253H55.4136H53.0909V17.5863V6.74692V4.42419H55.4136ZM55.4136 17.5863H66.253V6.74692H55.4136V17.5863Z" fill="black"/>
<path d="M6.74694 4.42419H17.5863H19.9091V6.74692V17.5863V19.909H17.5863H6.74694H4.42421V17.5863V6.74692V4.42419H6.74694ZM6.74694 17.5863H17.5863V6.74692H6.74694V17.5863Z" fill="black"/>
<path d="M55.4136 53.0908H66.253H68.5757V55.4135V66.2529V68.5757H66.253H55.4136H53.0909V66.2529V55.4135V53.0908H55.4136ZM55.4136 66.2529H66.253V55.4135H55.4136V66.2529Z" fill="black"/>
<path d="M57.5151 8.84839H64.1515V15.4848H57.5151V8.84839Z" fill="black"/>
<path d="M8.8485 8.84839H15.4849V15.4848H8.8485V8.84839Z" fill="black"/>
<path d="M57.5151 57.5151H64.1515V64.1515H57.5151V57.5151Z" fill="black"/>
</g>
<defs>
<clipPath id="clip0_28_34">
<rect width="73" height="73" fill="white" transform="matrix(-1 0 0 1 73 0)"/>
</clipPath>
</defs>
</svg>
