<svg width="35" height="35" viewBox="0 0 35 35" fill="none" xmlns="http://www.w3.org/2000/svg">
<mask id="mask0_20_18" style="mask-type:alpha" maskUnits="userSpaceOnUse" x="0" y="0" width="35" height="35">
<rect width="35" height="35" fill="#D9D9D9"/>
</mask>
<g mask="url(#mask0_20_18)">
<path d="M9.04167 25.4844C10.2812 24.6094 11.5937 23.9108 12.9792 23.3888C14.3646 22.8657 15.8715 22.6042 17.5 22.6042C19.1285 22.6042 20.6354 22.8657 22.0208 23.3888C23.4063 23.9108 24.7188 24.6094 25.9583 25.4844C26.9306 24.4878 27.7083 23.3149 28.2917 21.9654C28.875 20.6169 29.1667 19.1285 29.1667 17.5C29.1667 14.2674 28.0306 11.5145 25.7585 9.24146C23.4855 6.96937 20.7326 5.83333 17.5 5.83333C14.2674 5.83333 11.515 6.96937 9.24292 9.24146C6.96986 11.5145 5.83333 14.2674 5.83333 17.5C5.83333 19.1285 6.125 20.6169 6.70833 21.9654C7.29167 23.3149 8.06944 24.4878 9.04167 25.4844ZM17.5 18.2292C16.2604 18.2292 15.2216 17.8097 14.3835 16.9706C13.5445 16.1326 13.125 15.0938 13.125 13.8542C13.125 12.6146 13.5445 11.5753 14.3835 10.7362C15.2216 9.89819 16.2604 9.47917 17.5 9.47917C18.7396 9.47917 19.7784 9.89819 20.6165 10.7362C21.4555 11.5753 21.875 12.6146 21.875 13.8542C21.875 15.0938 21.4555 16.1326 20.6165 16.9706C19.7784 17.8097 18.7396 18.2292 17.5 18.2292ZM17.5 30.625C15.6771 30.625 13.9635 30.2847 12.3594 29.6042C10.7552 28.9236 9.36396 27.9942 8.18563 26.8158C7.00632 25.6365 6.07639 24.2448 5.39583 22.6406C4.71528 21.0365 4.375 19.3229 4.375 17.5C4.375 15.6771 4.71528 13.9635 5.39583 12.3594C6.07639 10.7552 7.00632 9.36347 8.18563 8.18417C9.36396 7.00583 10.7552 6.07639 12.3594 5.39583C13.9635 4.71528 15.6771 4.375 17.5 4.375C19.3229 4.375 21.0365 4.71528 22.6406 5.39583C24.2448 6.07639 25.6365 7.00583 26.8158 8.18417C27.9942 9.36347 28.9236 10.7552 29.6042 12.3594C30.2847 13.9635 30.625 15.6771 30.625 17.5C30.625 19.3229 30.2847 21.0365 29.6042 22.6406C28.9236 24.2448 27.9942 25.6365 26.8158 26.8158C25.6365 27.9942 24.2448 28.9236 22.6406 29.6042C21.0365 30.2847 19.3229 30.625 17.5 30.625ZM17.5 29.1667C18.8368 29.1667 20.1556 28.9294 21.4565 28.455C22.7563 27.9815 23.8802 27.3438 24.8281 26.5417C23.8802 25.7639 22.7865 25.1563 21.5469 24.7188C20.3073 24.2813 18.9583 24.0625 17.5 24.0625C16.0417 24.0625 14.6869 24.2813 13.4356 24.7188C12.1834 25.1563 11.0955 25.7639 10.1719 26.5417C11.1198 27.3438 12.2437 27.9815 13.5435 28.455C14.8444 28.9294 16.1632 29.1667 17.5 29.1667ZM17.5 16.7708C18.3264 16.7708 19.0191 16.4913 19.5781 15.9323C20.1372 15.3733 20.4167 14.6806 20.4167 13.8542C20.4167 13.0278 20.1372 12.3351 19.5781 11.776C19.0191 11.217 18.3264 10.9375 17.5 10.9375C16.6736 10.9375 15.9809 11.217 15.4219 11.776C14.8628 12.3351 14.5833 13.0278 14.5833 13.8542C14.5833 14.6806 14.8628 15.3733 15.4219 15.9323C15.9809 16.4913 16.6736 16.7708 17.5 16.7708Z" fill="#5A5966"/>
</g>
</svg>
