<svg width="35" height="35" viewBox="0 0 35 35" fill="none" xmlns="http://www.w3.org/2000/svg">
<mask id="mask0_20_30" style="mask-type:alpha" maskUnits="userSpaceOnUse" x="0" y="0" width="35" height="35">
<rect width="35" height="35" fill="#D9D9D9"/>
</mask>
<g mask="url(#mask0_20_30)">
<path d="M2.95316 28.2553V23.1511C2.95316 22.5678 3.14177 22.0695 3.51899 21.6563C3.89524 21.2431 4.36288 21.0122 4.92191 20.9636H9.15107C9.53996 20.9636 9.91086 21.0608 10.2638 21.2553C10.6157 21.4497 10.9132 21.7171 11.1563 22.0574C11.8854 23.1025 12.8032 23.9109 13.9096 24.4826C15.015 25.0533 16.2118 25.3386 17.5 25.3386C18.7882 25.3386 19.9914 25.0533 21.1094 24.4826C22.2275 23.9109 23.1511 23.1025 23.8802 22.0574C24.1233 21.7171 24.4213 21.4497 24.7742 21.2553C25.1261 21.0608 25.4844 20.9636 25.849 20.9636H30.0782C30.6372 21.0122 31.1111 21.2431 31.5 21.6563C31.8889 22.0695 32.0834 22.5678 32.0834 23.1511V28.2553H23.3334V24.7188C22.5313 25.3994 21.632 25.9156 20.6354 26.2676C19.6389 26.6205 18.5938 26.797 17.5 26.797C16.4306 26.797 15.4034 26.6205 14.4186 26.2676C13.4347 25.9156 12.5295 25.4115 11.7032 24.7553V28.2553H2.95316ZM17.5 22.7865C16.6736 22.7865 15.8895 22.5921 15.1477 22.2032C14.4069 21.8143 13.7813 21.2796 13.2709 20.599C12.9306 20.1129 12.5295 19.7056 12.0677 19.377C11.6059 19.0493 11.1077 18.8126 10.5729 18.6667C11.2778 18.0348 12.3108 17.5608 13.6719 17.2449C15.033 16.9289 16.3091 16.7709 17.5 16.7709C18.691 16.7709 19.967 16.9289 21.3282 17.2449C22.6893 17.5608 23.7344 18.0348 24.4636 18.6667C23.9289 18.8126 23.4306 19.0493 22.9688 19.377C22.507 19.7056 22.1059 20.1129 21.7657 20.599C21.2795 21.3039 20.6598 21.8449 19.9063 22.2222C19.1528 22.5984 18.3507 22.7865 17.5 22.7865ZM6.67191 18.4115C5.67538 18.4115 4.81836 18.047 4.10086 17.3178C3.38434 16.5886 3.02607 15.7379 3.02607 14.7657C3.02607 13.7449 3.38434 12.882 4.10086 12.1772C4.81836 11.4723 5.67538 11.1199 6.67191 11.1199C7.69274 11.1199 8.55559 11.4723 9.26045 12.1772C9.96531 12.882 10.3177 13.7449 10.3177 14.7657C10.3177 15.7379 9.96531 16.5886 9.26045 17.3178C8.55559 18.047 7.69274 18.4115 6.67191 18.4115ZM28.3282 18.4115C27.3316 18.4115 26.4751 18.047 25.7586 17.3178C25.0411 16.5886 24.6823 15.7379 24.6823 14.7657C24.6823 13.7449 25.0411 12.882 25.7586 12.1772C26.4751 11.4723 27.3316 11.1199 28.3282 11.1199C29.349 11.1199 30.2118 11.4723 30.9167 12.1772C31.6216 12.882 31.974 13.7449 31.974 14.7657C31.974 15.7379 31.6216 16.5886 30.9167 17.3178C30.2118 18.047 29.349 18.4115 28.3282 18.4115ZM17.5 14.0365C16.5035 14.0365 15.647 13.672 14.9304 12.9428C14.2129 12.2136 13.8542 11.3629 13.8542 10.3907C13.8542 9.36987 14.2129 8.50703 14.9304 7.80216C15.647 7.0973 16.5035 6.74487 17.5 6.74487C18.5209 6.74487 19.3837 7.0973 20.0886 7.80216C20.7934 8.50703 21.1459 9.36987 21.1459 10.3907C21.1459 11.3629 20.7934 12.2136 20.0886 12.9428C19.3837 13.672 18.5209 14.0365 17.5 14.0365Z" fill="#5A5966"/>
</g>
</svg>
