<svg width="83" height="89" viewBox="0 0 83 89" fill="none" xmlns="http://www.w3.org/2000/svg">
<path d="M41.5 88.5333C64.4198 88.5333 83 68.7145 83 44.2667C83 19.8189 64.4198 0 41.5 0C18.5802 0 0 19.8189 0 44.2667C0 68.7145 18.5802 88.5333 41.5 88.5333Z" fill="#485A69"/>
<path fill-rule="evenodd" clip-rule="evenodd" d="M31.215 55.2861L52.5963 55.5855V74.0916L31.2325 73.9182L31.215 55.2861Z" fill="#F9DCA4"/>
<path fill-rule="evenodd" clip-rule="evenodd" d="M71.8232 74.484C67.9453 78.9229 63.2512 82.4615 58.0339 84.8788C52.8166 87.296 47.1882 88.5401 41.5 88.5333C39.7773 88.5331 38.0563 88.4198 36.3467 88.1938C31.0809 87.4989 25.9903 85.7264 21.3543 82.9735C17.4071 80.6305 13.8432 77.6186 10.8021 74.0557L12.5265 69.6147L31.2284 60.7155C31.2284 67.2123 33.6996 69.5287 41.9324 69.6605C52.0993 69.8224 52.5962 67.3598 52.5962 60.6639L69.7737 69.662L71.8232 74.484Z" fill="#D5E1ED"/>
<path opacity="0.11" fill-rule="evenodd" clip-rule="evenodd" d="M52.6003 55.5526V60.4291C48.9069 67.4688 33.7977 67.5891 31.215 55.2861L52.6003 55.5526Z" fill="black"/>
<path fill-rule="evenodd" clip-rule="evenodd" d="M41.8076 12.0795C70.3889 12.0795 59.2497 62.6008 41.8076 62.6008C25.3325 62.6008 13.2263 12.0795 41.8076 12.0795Z" fill="#FFE8BE"/>
<path fill-rule="evenodd" clip-rule="evenodd" d="M24.6649 34.4464C20.5418 36.366 24.0471 45.4586 26.6419 45.417C25.5657 41.8599 24.9018 38.1756 24.6649 34.4464ZM59.2818 34.4464C63.405 36.3646 59.8996 45.4586 57.3062 45.417C58.3817 41.8597 59.0451 38.1755 59.2818 34.4464Z" fill="#F9DCA4"/>
<path fill-rule="evenodd" clip-rule="evenodd" d="M58.3002 42.3813C58.3002 42.3813 59.7319 29.895 55.594 25.5457C53.7943 30.5998 45.5185 32.3261 45.5185 32.3261C47.1254 31.1272 48.5772 29.7077 49.8364 28.1043C47.6177 29.1286 40.6016 32.1986 34.2437 29.7675C35.9733 28.6554 37.5999 27.3703 39.1015 25.9296C39.1015 25.9296 33.3438 29.2561 27.7662 28.4252C23.7491 31.6227 25.5367 41.5505 25.5367 41.5505C20.1458 26.3837 25.111 9.01947 42.1582 8.91919C58.7555 8.82034 63.8752 25.8909 58.2989 42.3813H58.3002Z" fill="#ECBE6A"/>
<path fill-rule="evenodd" clip-rule="evenodd" d="M31.2325 60.4247C33.8454 64.5774 37.5695 67.7951 41.9204 69.6591L34.9608 77.3219L26.1088 62.8472L31.2325 60.4247Z" fill="white"/>
<path fill-rule="evenodd" clip-rule="evenodd" d="M52.5934 60.4247C49.9804 64.5773 46.2563 67.795 41.9055 69.6591L48.8638 77.3219L57.7171 62.8486L52.5934 60.4247Z" fill="white"/>
<path fill-rule="evenodd" clip-rule="evenodd" d="M44.812 88.3902C43.7026 88.4828 42.5816 88.5296 41.449 88.5306C40.5948 88.5306 39.7465 88.5038 38.9039 88.4504L40.2886 75.9053H43.5253L44.812 88.3902Z" fill="#3DBC93"/>
<path fill-rule="evenodd" clip-rule="evenodd" d="M38.2391 73.7148L41.915 69.6792L45.5895 73.7148L41.915 77.7503L38.2391 73.7148Z" fill="#3DBC93"/>
</svg>
