<svg width="34" height="34" viewBox="0 0 34 34" fill="none" xmlns="http://www.w3.org/2000/svg">
<path d="M27.9695 4.94317C27.6889 4.94979 27.4223 5.06717 27.228 5.26967L17 15.4976L6.77207 5.26967C6.67303 5.16767 6.55453 5.08659 6.4236 5.03123C6.29266 4.97586 6.15194 4.94732 6.00978 4.94732C5.79833 4.94737 5.5917 5.01051 5.41633 5.12865C5.24096 5.2468 5.10483 5.41458 5.02535 5.61052C4.94587 5.80647 4.92666 6.02168 4.97018 6.2286C5.01369 6.43553 5.11796 6.62477 5.26963 6.77211L15.4976 17.0001L5.26963 27.228C5.16766 27.3259 5.08625 27.4432 5.03016 27.5729C4.97408 27.7027 4.94445 27.8423 4.94302 27.9837C4.94158 28.125 4.96836 28.2653 5.02179 28.3961C5.07523 28.527 5.15424 28.6459 5.25419 28.7459C5.35415 28.8458 5.47305 28.9248 5.60392 28.9783C5.7348 29.0317 5.87502 29.0585 6.01637 29.057C6.15773 29.0556 6.29737 29.026 6.42713 28.9699C6.5569 28.9138 6.67416 28.8324 6.77207 28.7304L17 18.5025L27.228 28.7304C27.3259 28.8324 27.4431 28.9138 27.5729 28.9699C27.7027 29.026 27.8423 29.0556 27.9837 29.057C28.125 29.0585 28.2652 29.0317 28.3961 28.9783C28.527 28.9248 28.6459 28.8458 28.7458 28.7459C28.8458 28.6459 28.9248 28.527 28.9782 28.3961C29.0317 28.2653 29.0584 28.125 29.057 27.9837C29.0556 27.8423 29.0259 27.7027 28.9699 27.5729C28.9138 27.4432 28.8324 27.3259 28.7304 27.228L18.5025 17.0001L28.7304 6.77211C28.8849 6.62381 28.991 6.43229 29.0348 6.22265C29.0785 6.01301 29.0579 5.79504 28.9757 5.59731C28.8934 5.39958 28.7533 5.23132 28.5738 5.11459C28.3942 4.99786 28.1836 4.93811 27.9695 4.94317V4.94317Z" fill="black"/>
</svg>
