<svg width="94" height="60" viewBox="0 0 94 60" fill="none" xmlns="http://www.w3.org/2000/svg">
<g filter="url(#filter0_d_34_4105)">
<path d="M90 0H4V52H90V0Z" fill="#10427A"/>
<path d="M53.6463 11.6113H42.0312V33.2564H53.6463V11.6113Z" fill="#FF5F00"/>
<path d="M42.7686 22.4339C42.7686 18.0361 44.7598 14.1354 47.8202 11.6114C45.571 9.77577 42.7317 8.66675 39.6344 8.66675C32.2966 8.66675 26.36 14.8237 26.36 22.4339C26.36 30.0441 32.2966 36.2011 39.6344 36.2011C42.7317 36.2011 45.571 35.0921 47.8202 33.2565C44.7598 30.7707 42.7686 26.8318 42.7686 22.4339Z" fill="#EB001B"/>
<path d="M69.3174 22.4339C69.3174 30.0441 63.3808 36.2011 56.043 36.2011C52.9456 36.2011 50.1064 35.0921 47.8571 33.2565C50.9545 30.7325 52.9088 26.8318 52.9088 22.4339C52.9088 18.0361 50.9176 14.1354 47.8571 11.6114C50.1064 9.77577 52.9456 8.66675 56.043 8.66675C63.3808 8.66675 69.3174 14.862 69.3174 22.4339Z" fill="#F79E1B"/>
<path d="M32.6257 44.9902V42.6961C32.6257 41.8167 32.0524 41.2432 31.0695 41.2432C30.5781 41.2432 30.0457 41.3961 29.6771 41.8932C29.3905 41.4726 28.9809 41.2432 28.3667 41.2432C27.9571 41.2432 27.5476 41.3579 27.22 41.7785V41.3196H26.36V44.9902H27.22V42.9638C27.22 42.3138 27.5886 42.0079 28.1619 42.0079C28.7352 42.0079 29.0219 42.352 29.0219 42.9638V44.9902H29.8819V42.9638C29.8819 42.3138 30.2914 42.0079 30.8238 42.0079C31.3971 42.0079 31.6838 42.352 31.6838 42.9638V44.9902H32.6257ZM45.3619 41.3196H43.9695V40.2108H43.1095V41.3196H42.3314V42.0461H43.1095V43.7285C43.1095 44.5696 43.4781 45.0667 44.4609 45.0667C44.8295 45.0667 45.239 44.952 45.5257 44.7991L45.28 44.1108C45.0343 44.2638 44.7476 44.302 44.5428 44.302C44.1333 44.302 43.9695 44.0726 43.9695 43.6902V42.0461H45.3619V41.3196ZM52.6514 41.2432C52.16 41.2432 51.8324 41.4726 51.6276 41.7785V41.3196H50.7676V44.9902H51.6276V42.9255C51.6276 42.3138 51.9143 41.9696 52.4467 41.9696C52.6105 41.9696 52.8152 42.0079 52.979 42.0461L53.2247 41.2814C53.0609 41.2432 52.8152 41.2432 52.6514 41.2432ZM41.6352 41.6255C41.2257 41.3579 40.6524 41.2432 40.0381 41.2432C39.0552 41.2432 38.4 41.702 38.4 42.4285C38.4 43.0402 38.8914 43.3843 39.7514 43.4991L40.1609 43.5373C40.6114 43.6138 40.8571 43.7285 40.8571 43.9196C40.8571 44.1873 40.5295 44.3785 39.9562 44.3785C39.3828 44.3785 38.9324 44.1873 38.6457 43.9961L38.2362 44.6079C38.6867 44.9138 39.3009 45.0667 39.9152 45.0667C41.0619 45.0667 41.7171 44.5696 41.7171 43.8814C41.7171 43.2314 41.1847 42.8873 40.3657 42.7726L39.9562 42.7343C39.5876 42.6961 39.3009 42.6196 39.3009 42.3902C39.3009 42.1226 39.5876 41.9696 40.0381 41.9696C40.5295 41.9696 41.0209 42.1608 41.2667 42.2755L41.6352 41.6255ZM64.4867 41.2432C63.9952 41.2432 63.6676 41.4726 63.4628 41.7785V41.3196H62.6028V44.9902H63.4628V42.9255C63.4628 42.3138 63.7495 41.9696 64.2819 41.9696C64.4457 41.9696 64.6505 42.0079 64.8143 42.0461L65.06 41.2814C64.8962 41.2432 64.6505 41.2432 64.4867 41.2432ZM53.5114 43.1549C53.5114 44.2638 54.3305 45.0667 55.6 45.0667C56.1733 45.0667 56.5828 44.952 56.9924 44.6461L56.5828 43.9961C56.2552 44.2255 55.9276 44.3402 55.559 44.3402C54.8628 44.3402 54.3714 43.8814 54.3714 43.1549C54.3714 42.4667 54.8628 42.0079 55.559 41.9696C55.9276 41.9696 56.2552 42.0843 56.5828 42.3138L56.9924 41.6638C56.5828 41.3579 56.1733 41.2432 55.6 41.2432C54.3305 41.2432 53.5114 42.0461 53.5114 43.1549ZM61.4562 43.1549V41.3196H60.5962V41.7785C60.3095 41.4343 59.9 41.2432 59.3676 41.2432C58.2619 41.2432 57.4019 42.0461 57.4019 43.1549C57.4019 44.2638 58.2619 45.0667 59.3676 45.0667C59.9409 45.0667 60.3505 44.8755 60.5962 44.5314V44.9902H61.4562V43.1549ZM58.3028 43.1549C58.3028 42.5049 58.7533 41.9696 59.4905 41.9696C60.1867 41.9696 60.6781 42.4667 60.6781 43.1549C60.6781 43.8049 60.1867 44.3402 59.4905 44.3402C58.7533 44.302 58.3028 43.8049 58.3028 43.1549ZM48.0238 41.2432C46.8771 41.2432 46.0581 42.0079 46.0581 43.1549C46.0581 44.302 46.8771 45.0667 48.0647 45.0667C48.6381 45.0667 49.2114 44.9138 49.6619 44.5696L49.2524 43.9961C48.9247 44.2255 48.5152 44.3785 48.1057 44.3785C47.5733 44.3785 47.0409 44.1491 46.9181 43.4991H49.8257V43.1932C49.8667 42.0079 49.1295 41.2432 48.0238 41.2432ZM48.0238 41.9314C48.5562 41.9314 48.9247 42.2373 49.0067 42.8108H46.959C47.0409 42.3138 47.4095 41.9314 48.0238 41.9314ZM69.36 43.1549V39.8667H68.5V41.7785C68.2133 41.4343 67.8038 41.2432 67.2714 41.2432C66.1657 41.2432 65.3057 42.0461 65.3057 43.1549C65.3057 44.2638 66.1657 45.0667 67.2714 45.0667C67.8447 45.0667 68.2543 44.8755 68.5 44.5314V44.9902H69.36V43.1549ZM66.2066 43.1549C66.2066 42.5049 66.6571 41.9696 67.3943 41.9696C68.0905 41.9696 68.5819 42.4667 68.5819 43.1549C68.5819 43.8049 68.0905 44.3402 67.3943 44.3402C66.6571 44.302 66.2066 43.8049 66.2066 43.1549ZM37.4581 43.1549V41.3196H36.5981V41.7785C36.3114 41.4343 35.9019 41.2432 35.3695 41.2432C34.2638 41.2432 33.4038 42.0461 33.4038 43.1549C33.4038 44.2638 34.2638 45.0667 35.3695 45.0667C35.9428 45.0667 36.3524 44.8755 36.5981 44.5314V44.9902H37.4581V43.1549ZM34.2638 43.1549C34.2638 42.5049 34.7143 41.9696 35.4514 41.9696C36.1476 41.9696 36.639 42.4667 36.639 43.1549C36.639 43.8049 36.1476 44.3402 35.4514 44.3402C34.7143 44.302 34.2638 43.8049 34.2638 43.1549Z" fill="white"/>
</g>
<defs>
<filter id="filter0_d_34_4105" x="0" y="0" width="94" height="60" filterUnits="userSpaceOnUse" color-interpolation-filters="sRGB">
<feFlood flood-opacity="0" result="BackgroundImageFix"/>
<feColorMatrix in="SourceAlpha" type="matrix" values="0 0 0 0 0 0 0 0 0 0 0 0 0 0 0 0 0 0 127 0" result="hardAlpha"/>
<feOffset dy="4"/>
<feGaussianBlur stdDeviation="2"/>
<feComposite in2="hardAlpha" operator="out"/>
<feColorMatrix type="matrix" values="0 0 0 0 0 0 0 0 0 0 0 0 0 0 0 0 0 0 0.25 0"/>
<feBlend mode="normal" in2="BackgroundImageFix" result="effect1_dropShadow_34_4105"/>
<feBlend mode="normal" in="SourceGraphic" in2="effect1_dropShadow_34_4105" result="shape"/>
</filter>
</defs>
</svg>
