<svg width="94" height="60" viewBox="0 0 94 60" fill="none" xmlns="http://www.w3.org/2000/svg">
<g clip-path="url(#clip0_34_4093)" filter="url(#filter0_d_34_4093)">
<g filter="url(#filter1_d_34_4093)">
<path d="M90 0H4V52H90V0Z" fill="#B9E8FF"/>
<path d="M58.0447 11.365C56.4531 9.54187 53.5761 8.76025 49.8957 8.76025H39.214C38.461 8.76025 37.8211 9.31063 37.7032 10.0569L33.2556 38.4061C33.1671 38.9651 33.5978 39.4715 34.1616 39.4715H40.7561L42.4123 28.914L42.361 29.2446C42.4789 28.4983 43.114 27.948 43.866 27.948H46.9997C53.1559 27.948 57.9762 25.435 59.3843 18.1654C59.4261 17.9504 59.4623 17.7411 59.4936 17.5367C59.3159 17.4421 59.3159 17.4421 59.4936 17.5367C59.9129 14.8498 59.4908 13.0209 58.0447 11.365Z" fill="#27346A"/>
<path d="M44.9356 16.5687C45.1115 16.4846 45.3074 16.4378 45.5127 16.4378H53.887C54.8787 16.4378 55.8038 16.5028 56.649 16.6394C56.8914 16.6786 57.1263 16.7235 57.3544 16.7751C57.5826 16.8258 57.8042 16.8831 58.019 16.9462C58.1265 16.9777 58.232 17.0102 58.3356 17.0446C58.7511 17.1841 59.1381 17.3465 59.4936 17.5367C59.9129 14.8488 59.4908 13.0209 58.0447 11.365C56.4522 9.54187 53.5761 8.76025 49.8957 8.76025H39.213C38.461 8.76025 37.8211 9.31063 37.7032 10.0569L33.2556 38.4051C33.1671 38.9651 33.5978 39.4705 34.1607 39.4705H40.7561L44.1921 17.572C44.2625 17.1229 44.5496 16.7551 44.9356 16.5687Z" fill="#27346A"/>
<path d="M59.3843 18.1654C57.9762 25.434 53.1559 27.9479 46.9997 27.9479H43.8651C43.113 27.9479 42.4779 28.4983 42.361 29.2446L40.3007 42.3714C40.2237 42.8607 40.6002 43.304 41.0927 43.304H46.6517C47.3097 43.304 47.8697 42.8224 47.9723 42.1698L48.0265 41.8851L49.0743 35.2118L49.1418 34.8429C49.2445 34.1903 49.8045 33.7087 50.4624 33.7087H51.2943C56.6794 33.7087 60.896 31.5101 62.1282 25.1511C62.6425 22.4938 62.3763 20.2751 61.0158 18.7167C60.6032 18.2447 60.0907 17.8548 59.4936 17.5366C59.4613 17.7421 59.4261 17.9504 59.3843 18.1654Z" fill="#2790C3"/>
<path d="M58.02 16.9461C57.8051 16.883 57.5836 16.8257 57.3554 16.775C57.1272 16.7244 56.8914 16.6795 56.6499 16.6403C55.8038 16.5027 54.8796 16.4377 53.887 16.4377H45.5137C45.3074 16.4377 45.1115 16.4846 44.9366 16.5696C44.5496 16.7559 44.2635 17.1228 44.1931 17.5729L42.4133 28.9139L42.3619 29.2445C42.4789 28.4983 43.114 27.9479 43.866 27.9479H47.0007C53.1569 27.9479 57.9772 25.4349 59.3853 18.1653C59.4271 17.9503 59.4623 17.742 59.4946 17.5366C59.1381 17.3474 58.7521 17.184 58.3366 17.0455C58.233 17.0111 58.1274 16.9776 58.02 16.9461Z" fill="#1F264F"/>
</g>
</g>
<defs>
<filter id="filter0_d_34_4093" x="0" y="0" width="94" height="60" filterUnits="userSpaceOnUse" color-interpolation-filters="sRGB">
<feFlood flood-opacity="0" result="BackgroundImageFix"/>
<feColorMatrix in="SourceAlpha" type="matrix" values="0 0 0 0 0 0 0 0 0 0 0 0 0 0 0 0 0 0 127 0" result="hardAlpha"/>
<feOffset dy="4"/>
<feGaussianBlur stdDeviation="2"/>
<feComposite in2="hardAlpha" operator="out"/>
<feColorMatrix type="matrix" values="0 0 0 0 0 0 0 0 0 0 0 0 0 0 0 0 0 0 0.25 0"/>
<feBlend mode="normal" in2="BackgroundImageFix" result="effect1_dropShadow_34_4093"/>
<feBlend mode="normal" in="SourceGraphic" in2="effect1_dropShadow_34_4093" result="shape"/>
</filter>
<filter id="filter1_d_34_4093" x="0" y="0" width="94" height="60" filterUnits="userSpaceOnUse" color-interpolation-filters="sRGB">
<feFlood flood-opacity="0" result="BackgroundImageFix"/>
<feColorMatrix in="SourceAlpha" type="matrix" values="0 0 0 0 0 0 0 0 0 0 0 0 0 0 0 0 0 0 127 0" result="hardAlpha"/>
<feOffset dy="4"/>
<feGaussianBlur stdDeviation="2"/>
<feComposite in2="hardAlpha" operator="out"/>
<feColorMatrix type="matrix" values="0 0 0 0 0 0 0 0 0 0 0 0 0 0 0 0 0 0 0.25 0"/>
<feBlend mode="normal" in2="BackgroundImageFix" result="effect1_dropShadow_34_4093"/>
<feBlend mode="normal" in="SourceGraphic" in2="effect1_dropShadow_34_4093" result="shape"/>
</filter>
<clipPath id="clip0_34_4093">
<rect width="86" height="52" fill="white" transform="translate(4)"/>
</clipPath>
</defs>
</svg>
