<svg width="20" height="36" viewBox="0 0 20 36" fill="none" xmlns="http://www.w3.org/2000/svg">
<path d="M1.70614 0H18.6184C19.1457 0 19.5745 0.467854 19.5745 1.04304V34.957C19.5745 35.5321 19.1456 36 18.6184 36H1.70614C1.17888 36 0.750015 35.5321 0.750015 34.957V1.04304C0.750015 0.467854 1.17945 0 1.70614 0ZM3.70368 1.74993C3.42663 1.74993 3.20157 1.99552 3.20157 2.29832C3.20157 2.6005 3.42663 2.84608 3.70368 2.84608C3.98119 2.84608 4.20631 2.60056 4.20631 2.29832C4.20637 1.99614 3.98068 1.74993 3.70368 1.74993ZM4.72265 2.04794C4.59587 2.04794 4.49314 2.16001 4.49314 2.29832C4.49314 2.43657 4.59587 2.54864 4.72265 2.54864C4.84995 2.54864 4.95217 2.43657 4.95217 2.29832C4.95217 2.16001 4.84944 2.04794 4.72265 2.04794ZM5.32967 2.04794C5.20288 2.04794 5.10015 2.16001 5.10015 2.29832C5.10015 2.43657 5.20288 2.54864 5.32967 2.54864C5.45646 2.54864 5.55913 2.43657 5.55913 2.29832C5.5597 2.16001 5.45697 2.04794 5.32967 2.04794ZM12.0467 1.74993H8.27837V2.84602H12.0467V1.74993ZM8.27842 34.3955H12.0467V33.2993H8.27842V34.3955ZM2.74482 31.9899H17.5803V4.12573H2.74482V31.9899Z" fill="black"/>
</svg>
