<svg width="94" height="60" viewBox="0 0 94 60" fill="none" xmlns="http://www.w3.org/2000/svg">
<g clip-path="url(#clip0_34_4115)" filter="url(#filter0_d_34_4115)">
<g filter="url(#filter1_d_34_4115)">
<path d="M90 0H4V52H90V0Z" fill="#25459A"/>
<path d="M47.1149 22.8746C47.0825 25.289 49.3903 26.6365 51.1288 27.4376C52.915 28.2596 53.515 28.7866 53.5081 29.5216C53.4945 30.6467 52.0833 31.1431 50.7623 31.1624C48.458 31.1963 47.1183 30.5741 46.0531 30.1035L45.223 33.7768C46.2917 34.2426 48.2705 34.6488 50.3226 34.6665C55.1393 34.6665 58.2907 32.418 58.3077 28.9317C58.3265 24.5073 51.8361 24.2623 51.8804 22.2846C51.8958 21.685 52.5008 21.0452 53.8269 20.8824C54.4831 20.8002 56.2948 20.7373 58.3486 21.6319L59.1548 18.0778C58.0504 17.6974 56.6306 17.3332 54.8631 17.3332C50.3294 17.3332 47.1405 19.6123 47.1149 22.8746ZM66.9013 17.6394C66.0219 17.6394 65.2804 18.1246 64.9498 18.8692L58.0691 34.4054H62.8824L63.8402 31.9023H69.7221L70.2778 34.4054H74.52L70.818 17.6394H66.9013ZM67.5746 22.1686L68.9637 28.4643H65.1594L67.5746 22.1686ZM41.2791 17.6394L37.4851 34.4054H42.0716L45.8639 17.6394H41.2791ZM34.4938 17.6394L29.7198 29.051L27.7887 19.3479C27.562 18.2648 26.6672 17.6394 25.6735 17.6394H17.8691L17.76 18.1262C19.3621 18.455 21.1824 18.9853 22.2852 19.5526C22.9601 19.8992 23.1527 20.2022 23.3743 21.0258L27.032 34.4054H31.8793L39.3105 17.6394H34.4938Z" fill="white"/>
</g>
</g>
<defs>
<filter id="filter0_d_34_4115" x="0" y="0" width="94" height="60" filterUnits="userSpaceOnUse" color-interpolation-filters="sRGB">
<feFlood flood-opacity="0" result="BackgroundImageFix"/>
<feColorMatrix in="SourceAlpha" type="matrix" values="0 0 0 0 0 0 0 0 0 0 0 0 0 0 0 0 0 0 127 0" result="hardAlpha"/>
<feOffset dy="4"/>
<feGaussianBlur stdDeviation="2"/>
<feComposite in2="hardAlpha" operator="out"/>
<feColorMatrix type="matrix" values="0 0 0 0 0 0 0 0 0 0 0 0 0 0 0 0 0 0 0.25 0"/>
<feBlend mode="normal" in2="BackgroundImageFix" result="effect1_dropShadow_34_4115"/>
<feBlend mode="normal" in="SourceGraphic" in2="effect1_dropShadow_34_4115" result="shape"/>
</filter>
<filter id="filter1_d_34_4115" x="0" y="0" width="94" height="60" filterUnits="userSpaceOnUse" color-interpolation-filters="sRGB">
<feFlood flood-opacity="0" result="BackgroundImageFix"/>
<feColorMatrix in="SourceAlpha" type="matrix" values="0 0 0 0 0 0 0 0 0 0 0 0 0 0 0 0 0 0 127 0" result="hardAlpha"/>
<feOffset dy="4"/>
<feGaussianBlur stdDeviation="2"/>
<feComposite in2="hardAlpha" operator="out"/>
<feColorMatrix type="matrix" values="0 0 0 0 0 0 0 0 0 0 0 0 0 0 0 0 0 0 0.25 0"/>
<feBlend mode="normal" in2="BackgroundImageFix" result="effect1_dropShadow_34_4115"/>
<feBlend mode="normal" in="SourceGraphic" in2="effect1_dropShadow_34_4115" result="shape"/>
</filter>
<clipPath id="clip0_34_4115">
<rect width="86" height="52" fill="white" transform="translate(4)"/>
</clipPath>
</defs>
</svg>
